<mxfile host="Electron" agent="Mozilla/5.0 (Windows NT 10.0; Win64; x64) AppleWebKit/537.36 (KHTML, like Gecko) draw.io/26.0.9 Chrome/128.0.6613.186 Electron/32.2.5 Safari/537.36" version="26.0.9">
  <diagram name="Page-1" id="xaa7IMA2QeJfSdMatxdD">
    <mxGraphModel dx="6950" dy="4290" grid="0" gridSize="10" guides="1" tooltips="1" connect="1" arrows="1" fold="1" page="1" pageScale="1" pageWidth="850" pageHeight="1100" math="0" shadow="0">
      <root>
        <mxCell id="0" />
        <mxCell id="1" parent="0" />
        <mxCell id="PBFZtd4Mu3zHlJroNkUt-20" value="" style="ellipse;whiteSpace=wrap;html=1;aspect=fixed;gradientColor=#DEE2FF;gradientDirection=radial;fillColor=#F4FFF2;dashed=1;dashPattern=8 8;strokeWidth=8;strokeColor=#0000FF;" vertex="1" parent="1">
          <mxGeometry x="-1380" y="3440" width="4090" height="4090" as="geometry" />
        </mxCell>
        <mxCell id="PBFZtd4Mu3zHlJroNkUt-12" value="" style="verticalLabelPosition=bottom;verticalAlign=top;html=1;shape=mxgraph.basic.half_circle;rotation=-180;fillColor=default;strokeWidth=8;dashed=1;strokeColor=light-dark(#ff0000, #ededed);gradientColor=#FFF4F4;gradientDirection=north;dashPattern=8 8;" vertex="1" parent="1">
          <mxGeometry x="-1389" y="-972" width="4090" height="1616" as="geometry" />
        </mxCell>
        <mxCell id="PBFZtd4Mu3zHlJroNkUt-4" value="" style="shape=image;verticalLabelPosition=bottom;labelBackgroundColor=default;verticalAlign=top;aspect=fixed;imageAspect=0;image=https://cdn-icons-png.freepik.com/512/89/89039.png;" vertex="1" parent="1">
          <mxGeometry x="150" y="160" width="512" height="512" as="geometry" />
        </mxCell>
        <mxCell id="PBFZtd4Mu3zHlJroNkUt-7" value="" style="endArrow=none;html=1;rounded=0;entryX=0.184;entryY=0.675;entryDx=0;entryDy=0;entryPerimeter=0;strokeWidth=14;" edge="1" parent="1">
          <mxGeometry width="50" height="50" relative="1" as="geometry">
            <mxPoint x="634" y="644" as="sourcePoint" />
            <mxPoint x="1124" y="643" as="targetPoint" />
          </mxGeometry>
        </mxCell>
        <mxCell id="PBFZtd4Mu3zHlJroNkUt-11" value="" style="shape=image;verticalLabelPosition=bottom;labelBackgroundColor=default;verticalAlign=top;aspect=fixed;imageAspect=0;image=https://static.thenounproject.com/png/375028-200.png;" vertex="1" parent="1">
          <mxGeometry x="1930" y="-90" width="200" height="200" as="geometry" />
        </mxCell>
        <mxCell id="PBFZtd4Mu3zHlJroNkUt-13" value="" style="endArrow=baseDash;html=1;rounded=0;strokeWidth=6;startArrow=baseDash;startFill=0;endFill=0;endSize=25;startSize=25;" edge="1" parent="1">
          <mxGeometry width="50" height="50" relative="1" as="geometry">
            <mxPoint x="2710" y="680" as="sourcePoint" />
            <mxPoint x="710" y="680" as="targetPoint" />
          </mxGeometry>
        </mxCell>
        <mxCell id="PBFZtd4Mu3zHlJroNkUt-16" value="NO FLY ZONE" style="text;html=1;align=center;verticalAlign=middle;resizable=0;points=[];autosize=1;strokeColor=none;fillColor=none;fontSize=100;fontColor=#CC0000;fontStyle=1" vertex="1" parent="1">
          <mxGeometry x="270" y="-600" width="680" height="130" as="geometry" />
        </mxCell>
        <mxCell id="PBFZtd4Mu3zHlJroNkUt-19" value="8 km" style="text;html=1;align=center;verticalAlign=middle;whiteSpace=wrap;rounded=0;fontSize=100;fontStyle=1" vertex="1" parent="1">
          <mxGeometry x="1630" y="710" width="230" height="110" as="geometry" />
        </mxCell>
        <mxCell id="PBFZtd4Mu3zHlJroNkUt-23" value="" style="verticalLabelPosition=bottom;verticalAlign=top;html=1;shape=mxgraph.basic.half_circle;rotation=-180;fillColor=default;strokeWidth=8;dashed=1;strokeColor=light-dark(#0000FF,#EDEDED);gradientColor=#EEEFFF;gradientDirection=north;dashPattern=8 8;" vertex="1" parent="1">
          <mxGeometry x="-1330" y="1120" width="4090" height="1616" as="geometry" />
        </mxCell>
        <mxCell id="PBFZtd4Mu3zHlJroNkUt-24" value="" style="shape=image;verticalLabelPosition=bottom;labelBackgroundColor=default;verticalAlign=top;aspect=fixed;imageAspect=0;image=https://cdn-icons-png.freepik.com/512/89/89039.png;" vertex="1" parent="1">
          <mxGeometry x="209" y="2252.0000000000005" width="512" height="512" as="geometry" />
        </mxCell>
        <mxCell id="PBFZtd4Mu3zHlJroNkUt-26" value="" style="endArrow=none;html=1;rounded=0;entryX=0.184;entryY=0.675;entryDx=0;entryDy=0;entryPerimeter=0;strokeWidth=14;" edge="1" parent="1">
          <mxGeometry width="50" height="50" relative="1" as="geometry">
            <mxPoint x="693" y="2736.0000000000005" as="sourcePoint" />
            <mxPoint x="1183" y="2735.0000000000005" as="targetPoint" />
          </mxGeometry>
        </mxCell>
        <mxCell id="PBFZtd4Mu3zHlJroNkUt-27" value="" style="shape=image;verticalLabelPosition=bottom;labelBackgroundColor=default;verticalAlign=top;aspect=fixed;imageAspect=0;image=https://static.thenounproject.com/png/375028-200.png;" vertex="1" parent="1">
          <mxGeometry x="1713" y="1950.23" width="200" height="200" as="geometry" />
        </mxCell>
        <mxCell id="PBFZtd4Mu3zHlJroNkUt-28" value="" style="endArrow=baseDash;html=1;rounded=0;strokeWidth=6;startArrow=baseDash;startFill=0;endFill=0;endSize=25;startSize=25;" edge="1" parent="1">
          <mxGeometry width="50" height="50" relative="1" as="geometry">
            <mxPoint x="2769" y="2772.0000000000005" as="sourcePoint" />
            <mxPoint x="769" y="2772.0000000000005" as="targetPoint" />
          </mxGeometry>
        </mxCell>
        <mxCell id="PBFZtd4Mu3zHlJroNkUt-30" value="DETECTION ZONE" style="text;html=1;align=center;verticalAlign=middle;resizable=0;points=[];autosize=1;strokeColor=none;fillColor=none;fontSize=100;fontColor=#0000CC;fontStyle=1" vertex="1" parent="1">
          <mxGeometry x="214" y="1492" width="910" height="130" as="geometry" />
        </mxCell>
        <mxCell id="PBFZtd4Mu3zHlJroNkUt-33" value="100 m" style="text;html=1;align=center;verticalAlign=middle;whiteSpace=wrap;rounded=0;fontSize=100;fontStyle=1" vertex="1" parent="1">
          <mxGeometry x="1689" y="2802.0000000000005" width="424" height="110" as="geometry" />
        </mxCell>
        <mxCell id="PBFZtd4Mu3zHlJroNkUt-40" value="" style="shape=image;verticalLabelPosition=bottom;labelBackgroundColor=default;verticalAlign=top;aspect=fixed;imageAspect=0;image=https://www.pngkey.com/png/full/538-5387356_multicopters-drone-icon-free-download.png;" vertex="1" parent="1">
          <mxGeometry x="1578" y="4215" width="116" height="116" as="geometry" />
        </mxCell>
        <mxCell id="PBFZtd4Mu3zHlJroNkUt-55" value="" style="shape=mxgraph.signs.transportation.airplane_1;html=1;pointerEvents=1;fillColor=#000000;strokeColor=none;verticalLabelPosition=bottom;verticalAlign=top;align=center;" vertex="1" parent="1">
          <mxGeometry x="962" y="2421.63" width="488.6" height="172.74" as="geometry" />
        </mxCell>
        <mxCell id="PBFZtd4Mu3zHlJroNkUt-56" value="" style="shape=mxgraph.signs.transportation.airplane_1;html=1;pointerEvents=1;fillColor=#000000;strokeColor=none;verticalLabelPosition=bottom;verticalAlign=top;align=center;" vertex="1" parent="1">
          <mxGeometry x="972" y="332" width="488.6" height="172.74" as="geometry" />
        </mxCell>
        <mxCell id="PBFZtd4Mu3zHlJroNkUt-46" value="" style="rounded=1;whiteSpace=wrap;html=1;rotation=90;arcSize=3;fillColor=#B3B3B3;strokeWidth=5;" vertex="1" parent="1">
          <mxGeometry x="-489.92" y="5295.46" width="2411.4" height="264.45" as="geometry" />
        </mxCell>
        <mxCell id="PBFZtd4Mu3zHlJroNkUt-62" value="" style="shape=image;verticalLabelPosition=bottom;labelBackgroundColor=default;verticalAlign=top;aspect=fixed;imageAspect=0;image=https://static.thenounproject.com/png/31333-200.png;rotation=90;clipPath=inset(10% 57% 16% 2%);" vertex="1" parent="1">
          <mxGeometry x="1568" y="3971" width="156.7972972972973" height="283" as="geometry" />
        </mxCell>
        <mxCell id="PBFZtd4Mu3zHlJroNkUt-48" value="" style="endArrow=none;html=1;rounded=0;strokeColor=#FFFFFF;strokeWidth=8;dashed=1;" edge="1" parent="1">
          <mxGeometry width="50" height="50" relative="1" as="geometry">
            <mxPoint x="715" y="6451" as="sourcePoint" />
            <mxPoint x="715" y="4402" as="targetPoint" />
          </mxGeometry>
        </mxCell>
        <mxCell id="PBFZtd4Mu3zHlJroNkUt-58" value="" style="rounded=1;whiteSpace=wrap;html=1;fillColor=#333333;arcSize=4;strokeWidth=13;" vertex="1" parent="1">
          <mxGeometry x="953" y="5032" width="221" height="492" as="geometry" />
        </mxCell>
        <mxCell id="PBFZtd4Mu3zHlJroNkUt-50" value="" style="whiteSpace=wrap;html=1;shape=mxgraph.basic.octagon2;align=center;verticalAlign=middle;dx=39;fillColor=#666666;strokeColor=#000000;strokeWidth=9;" vertex="1" parent="1">
          <mxGeometry x="920" y="5367" width="291" height="291" as="geometry" />
        </mxCell>
        <mxCell id="PBFZtd4Mu3zHlJroNkUt-65" value="" style="shape=image;verticalLabelPosition=bottom;labelBackgroundColor=default;verticalAlign=top;aspect=fixed;imageAspect=0;image=https://static.thenounproject.com/png/31333-200.png;rotation=-90;clipPath=inset(10% 57% 16% 2%);" vertex="1" parent="1">
          <mxGeometry x="1547" y="4292" width="156.7972972972973" height="283" as="geometry" />
        </mxCell>
        <mxCell id="PBFZtd4Mu3zHlJroNkUt-66" value="" style="shape=image;verticalLabelPosition=bottom;labelBackgroundColor=default;verticalAlign=top;aspect=fixed;imageAspect=0;image=https://static.thenounproject.com/png/31333-200.png;rotation=-180;clipPath=inset(10% 57% 16% 2%);" vertex="1" parent="1">
          <mxGeometry x="1732" y="4147" width="156.7972972972973" height="283" as="geometry" />
        </mxCell>
        <mxCell id="PBFZtd4Mu3zHlJroNkUt-67" value="" style="shape=image;verticalLabelPosition=bottom;labelBackgroundColor=default;verticalAlign=top;aspect=fixed;imageAspect=0;image=https://static.thenounproject.com/png/31333-200.png;rotation=0;clipPath=inset(10% 57% 16% 2%);" vertex="1" parent="1">
          <mxGeometry x="1385" y="4119" width="156.7972972972973" height="283" as="geometry" />
        </mxCell>
        <mxCell id="PBFZtd4Mu3zHlJroNkUt-86" value="" style="group" vertex="1" connectable="0" parent="1">
          <mxGeometry x="610" y="4232" width="209" height="120" as="geometry" />
        </mxCell>
        <mxCell id="PBFZtd4Mu3zHlJroNkUt-68" value="" style="rounded=0;whiteSpace=wrap;html=1;rotation=90;" vertex="1" parent="PBFZtd4Mu3zHlJroNkUt-86">
          <mxGeometry x="-53" y="53" width="120" height="14" as="geometry" />
        </mxCell>
        <mxCell id="PBFZtd4Mu3zHlJroNkUt-69" value="" style="rounded=0;whiteSpace=wrap;html=1;rotation=90;" vertex="1" parent="PBFZtd4Mu3zHlJroNkUt-86">
          <mxGeometry x="-32" y="53" width="120" height="14" as="geometry" />
        </mxCell>
        <mxCell id="PBFZtd4Mu3zHlJroNkUt-75" value="" style="rounded=0;whiteSpace=wrap;html=1;rotation=90;" vertex="1" parent="PBFZtd4Mu3zHlJroNkUt-86">
          <mxGeometry x="-11" y="53" width="120" height="14" as="geometry" />
        </mxCell>
        <mxCell id="PBFZtd4Mu3zHlJroNkUt-76" value="" style="rounded=0;whiteSpace=wrap;html=1;rotation=90;" vertex="1" parent="PBFZtd4Mu3zHlJroNkUt-86">
          <mxGeometry x="11" y="53" width="120" height="14" as="geometry" />
        </mxCell>
        <mxCell id="PBFZtd4Mu3zHlJroNkUt-77" value="" style="rounded=0;whiteSpace=wrap;html=1;rotation=90;" vertex="1" parent="PBFZtd4Mu3zHlJroNkUt-86">
          <mxGeometry x="33" y="53" width="120" height="14" as="geometry" />
        </mxCell>
        <mxCell id="PBFZtd4Mu3zHlJroNkUt-78" value="" style="rounded=0;whiteSpace=wrap;html=1;rotation=90;" vertex="1" parent="PBFZtd4Mu3zHlJroNkUt-86">
          <mxGeometry x="55" y="53" width="120" height="14" as="geometry" />
        </mxCell>
        <mxCell id="PBFZtd4Mu3zHlJroNkUt-79" value="" style="rounded=0;whiteSpace=wrap;html=1;rotation=90;" vertex="1" parent="PBFZtd4Mu3zHlJroNkUt-86">
          <mxGeometry x="77" y="53" width="120" height="14" as="geometry" />
        </mxCell>
        <mxCell id="PBFZtd4Mu3zHlJroNkUt-80" value="" style="rounded=0;whiteSpace=wrap;html=1;rotation=90;" vertex="1" parent="PBFZtd4Mu3zHlJroNkUt-86">
          <mxGeometry x="99" y="53" width="120" height="14" as="geometry" />
        </mxCell>
        <mxCell id="PBFZtd4Mu3zHlJroNkUt-82" value="" style="rounded=0;whiteSpace=wrap;html=1;rotation=90;" vertex="1" parent="PBFZtd4Mu3zHlJroNkUt-86">
          <mxGeometry x="120" y="53" width="120" height="14" as="geometry" />
        </mxCell>
        <mxCell id="PBFZtd4Mu3zHlJroNkUt-83" value="" style="rounded=0;whiteSpace=wrap;html=1;rotation=90;" vertex="1" parent="PBFZtd4Mu3zHlJroNkUt-86">
          <mxGeometry x="142" y="53" width="120" height="14" as="geometry" />
        </mxCell>
        <mxCell id="PBFZtd4Mu3zHlJroNkUt-87" value="" style="group" vertex="1" connectable="0" parent="1">
          <mxGeometry x="611" y="6484" width="209" height="120" as="geometry" />
        </mxCell>
        <mxCell id="PBFZtd4Mu3zHlJroNkUt-88" value="" style="rounded=0;whiteSpace=wrap;html=1;rotation=90;" vertex="1" parent="PBFZtd4Mu3zHlJroNkUt-87">
          <mxGeometry x="-53" y="53" width="120" height="14" as="geometry" />
        </mxCell>
        <mxCell id="PBFZtd4Mu3zHlJroNkUt-89" value="" style="rounded=0;whiteSpace=wrap;html=1;rotation=90;" vertex="1" parent="PBFZtd4Mu3zHlJroNkUt-87">
          <mxGeometry x="-32" y="53" width="120" height="14" as="geometry" />
        </mxCell>
        <mxCell id="PBFZtd4Mu3zHlJroNkUt-90" value="" style="rounded=0;whiteSpace=wrap;html=1;rotation=90;" vertex="1" parent="PBFZtd4Mu3zHlJroNkUt-87">
          <mxGeometry x="-11" y="53" width="120" height="14" as="geometry" />
        </mxCell>
        <mxCell id="PBFZtd4Mu3zHlJroNkUt-91" value="" style="rounded=0;whiteSpace=wrap;html=1;rotation=90;" vertex="1" parent="PBFZtd4Mu3zHlJroNkUt-87">
          <mxGeometry x="11" y="53" width="120" height="14" as="geometry" />
        </mxCell>
        <mxCell id="PBFZtd4Mu3zHlJroNkUt-92" value="" style="rounded=0;whiteSpace=wrap;html=1;rotation=90;" vertex="1" parent="PBFZtd4Mu3zHlJroNkUt-87">
          <mxGeometry x="33" y="53" width="120" height="14" as="geometry" />
        </mxCell>
        <mxCell id="PBFZtd4Mu3zHlJroNkUt-93" value="" style="rounded=0;whiteSpace=wrap;html=1;rotation=90;" vertex="1" parent="PBFZtd4Mu3zHlJroNkUt-87">
          <mxGeometry x="55" y="53" width="120" height="14" as="geometry" />
        </mxCell>
        <mxCell id="PBFZtd4Mu3zHlJroNkUt-94" value="" style="rounded=0;whiteSpace=wrap;html=1;rotation=90;" vertex="1" parent="PBFZtd4Mu3zHlJroNkUt-87">
          <mxGeometry x="77" y="53" width="120" height="14" as="geometry" />
        </mxCell>
        <mxCell id="PBFZtd4Mu3zHlJroNkUt-95" value="" style="rounded=0;whiteSpace=wrap;html=1;rotation=90;" vertex="1" parent="PBFZtd4Mu3zHlJroNkUt-87">
          <mxGeometry x="99" y="53" width="120" height="14" as="geometry" />
        </mxCell>
        <mxCell id="PBFZtd4Mu3zHlJroNkUt-96" value="" style="rounded=0;whiteSpace=wrap;html=1;rotation=90;" vertex="1" parent="PBFZtd4Mu3zHlJroNkUt-87">
          <mxGeometry x="120" y="53" width="120" height="14" as="geometry" />
        </mxCell>
        <mxCell id="PBFZtd4Mu3zHlJroNkUt-97" value="" style="rounded=0;whiteSpace=wrap;html=1;rotation=90;" vertex="1" parent="PBFZtd4Mu3zHlJroNkUt-87">
          <mxGeometry x="142" y="53" width="120" height="14" as="geometry" />
        </mxCell>
        <mxCell id="PBFZtd4Mu3zHlJroNkUt-53" value="" style="shape=mxgraph.signs.transportation.airplane_6;html=1;pointerEvents=1;fillColor=#000000;strokeColor=none;verticalLabelPosition=bottom;verticalAlign=top;align=center;" vertex="1" parent="1">
          <mxGeometry x="565.78" y="6233" width="300" height="312.37" as="geometry" />
        </mxCell>
        <mxCell id="PBFZtd4Mu3zHlJroNkUt-99" value="" style="shape=image;verticalLabelPosition=bottom;labelBackgroundColor=default;verticalAlign=top;aspect=fixed;imageAspect=0;image=https://static.thenounproject.com/png/31333-200.png;rotation=-180;clipPath=inset(10% 57% 16% 2%);" vertex="1" parent="1">
          <mxGeometry x="1908.1" y="1933" width="156.7972972972973" height="283" as="geometry" />
        </mxCell>
        <mxCell id="PBFZtd4Mu3zHlJroNkUt-100" value="" style="shape=image;verticalLabelPosition=bottom;labelBackgroundColor=default;verticalAlign=top;aspect=fixed;imageAspect=0;image=https://static.thenounproject.com/png/31333-200.png;rotation=0;clipPath=inset(10% 57% 16% 2%);" vertex="1" parent="1">
          <mxGeometry x="1561.1" y="1905" width="156.7972972972973" height="283" as="geometry" />
        </mxCell>
        <mxCell id="PBFZtd4Mu3zHlJroNkUt-101" value="DETECTION ZONE" style="text;html=1;align=center;verticalAlign=middle;resizable=0;points=[];autosize=1;strokeColor=none;fillColor=none;fontSize=100;fontColor=#0000CC;fontStyle=1" vertex="1" parent="1">
          <mxGeometry x="-8" y="3866" width="910" height="130" as="geometry" />
        </mxCell>
      </root>
    </mxGraphModel>
  </diagram>
</mxfile>
